<?xml version="1.0" encoding="utf-8"?>
<!-- Generator: Adobe Illustrator 16.0.0, SVG Export Plug-In . SVG Version: 6.00 Build 0)  -->
<!DOCTYPE svg PUBLIC "-//W3C//DTD SVG 1.1//EN" "http://www.w3.org/Graphics/SVG/1.1/DTD/svg11.dtd">
<svg version="1.1" xmlns="http://www.w3.org/2000/svg" xmlns:xlink="http://www.w3.org/1999/xlink" x="0px" y="0px" width="300px"
	 height="300px" viewBox="0 0 300 300" enable-background="new 0 0 300 300" xml:space="preserve">
<g id="Guides_x2C__BKG">
	<rect x="-360" y="-30" fill="#1B1C1D" width="1020" height="360"/>
</g>
<g id="Layer_1">
	<path fill="#BBBBBB" d="M105.448,30.637c0.206,0.767,0.411,1.534,0.617,2.301c0.106,0.396,0.215,0.798,0.429,1.147
		c0.237,0.389,0.59,0.69,0.882,1.04c1.274,1.526,1.235,3.737,0.951,5.705c-0.029,0.205-0.059,0.424,0.036,0.608
		c0.13,0.252,0.46,0.366,0.548,0.597c0.357,0.939,1.413,1.427,2.416,1.486l38.811,2.263c3.26,0.19,6.521,0.38,9.782,0.57
		c11.54,0.673,21.73,1.802,33.288,2.022c1.918,0.037,3.835,0.073,5.752,0.11c0.643,0.012,1.311,0.03,1.883,0.321
		c0.892,0.453,1.354,1.466,1.551,2.447s0.198,2,0.491,2.956c0.683,2.219,3.078,3.772,5.383,3.489
		c0.429-0.053,0.885-0.183,1.146-0.527c0.335-0.44,0.236-1.06,0.129-1.603c-0.8-4.02-1.269-8.106-1.4-12.203
		c-0.017-0.516-0.024-1.051,0.184-1.523c0.226-0.51,0.675-0.881,1.107-1.233c0.772-0.626,1.596-1.276,2.58-1.42
		c0.769-0.112,1.543,0.1,2.29,0.313c4.34,1.24,8.647,2.594,12.915,4.06c0.841,0.289,1.752,0.64,2.185,1.416
		c0.29,0.519,0.311,1.14,0.329,1.734c0.232,7.562,1.223,15.1,2.948,22.465c0.139,0.592,0.368,0.004,0.595,0.567
		c0.893,2.227,1.349,4.6,1.936,6.925c1.569,6.211,4.09,12.134,6.601,18.028c0.673,1.581,1.349,3.166,2.204,4.656
		c0.796,1.388,1.741,2.684,2.626,4.017c2.522,3.802,4.544,7.901,6.856,11.829c1.803,3.064,4.317,5.763,6.138,8.797
		c1.007,1.68,1.408,4.622,0.844,6.498c-0.504,1.676-1.295,3.266-1.673,4.975c-0.949,4.298,0.82,8.736,3.09,12.508
		c2.269,3.772,5.094,7.271,6.596,11.408c1.649,4.545,1.771,9.512,3.49,14.03c1.455,3.825,4.146,7.035,6.117,10.622
		c1.778,3.239,2.958,6.766,4.128,10.271c0.284,0.852,0.569,1.704,0.802,2.57c1.349,5.025,0.914,10.35,0.144,15.495
		c-0.771,5.146-1.869,10.28-1.822,15.483c0.003,0.377-0.38-0.612-0.076-0.389c0.754,3.577-0.24,7.315-1.797,10.623
		c-1.558,3.308-3.667,6.325-5.341,9.576c-0.488,0.947-0.95,1.998-0.751,3.046c0.146,0.764,0.628,1.422,0.846,2.168
		c0.611,2.1-0.966,4.173-2.567,5.661c-3.002,2.789-6.709,5.119-10.802,5.317c-1.099,0.054-2.203-0.048-3.3,0.051
		c-4.334,0.388-8.425,3.86-12.77,0.3c-1.643-1.347-2.214-3.481-1.643-5.528c0.053-0.188,0.138-0.364,0.288-0.483
		c0.278-0.221,0.686-0.17,1.014-0.034c1.068,0.441,1.676,1.561,2.582,2.278c1.104,0.872,2.688,1.089,3.984,0.546
		c0.185-1.326-0.898-2.507-2.07-3.155c-1.172-0.647-2.518-0.994-3.566-1.827c-1.115-0.884-1.768-2.212-2.395-3.489
		c-2.033-4.146-3.249-7.813-6.199-11.364c-2.56-3.082-6.169-5.274-10.084-6.126c-1.595-0.348-3.315-0.512-4.613-1.503
		c-0.879-0.672-1.462-1.655-1.94-2.652c-0.904-1.886-1.511-3.913-1.792-5.985c-0.262-1.925-0.245-3.896-0.734-5.776
		c-0.47-1.804-1.406-3.485-2.694-4.833c-2.18-2.281-4.88-2.206-6.628-4.832c-1.206-1.813-0.831-4.228-0.195-6.309
		c0.636-2.082,1.498-4.221,1.12-6.364c-0.122-0.692-0.395-1.391-0.931-1.846c-0.536-0.456-1.379-0.596-1.948-0.182
		c-0.185,0.698,0.021,1.432,0.054,2.152c0.032,0.722-0.214,1.571-0.897,1.807c-0.248,0.086-0.519,0.075-0.782,0.063
		c-1.414-0.066-2.939-0.174-4.024-1.084c-0.833-0.699-1.279-1.778-1.919-2.592c-0.609-0.958-1.213-1.906-1.822-2.863
		c-1.045-1.977-2.438-3.801-3.383-5.853c-0.603-1.31-1.017-2.696-1.43-4.077c-0.636-2.134-0.696-3.798-1.332-5.932
		c-1.603-1.203-3.365-2.715-3.331-4.718c0.019-1.105,0.611-2.151,1.218-3.008c0.878-1.239,1.96-2.32,3.183-3.221
		c2.431-1.788,5.551-4.467,5.608-7.825c0.011-0.641-0.111-1.32-0.538-1.798c-0.427-0.477-1.227-0.656-1.721-0.249
		c-0.885,0.729-0.191,2.537-1.197,3.086c-0.569,0.312-1.303-0.086-1.642-0.64c-0.339-0.553-0.415-1.221-0.607-1.841
		c-0.628-2.024-2.66-3.524-4.78-3.527c-0.159,0-0.33,0.011-0.459,0.105c-0.55,0.403,0.408,1.355,0.02,1.915
		c1.059-0.053,1.978,0.839,2.316,1.845c0.338,1.004,0.229,2.098,0.114,3.151c-0.08,0.746-0.16,1.492-0.241,2.238
		c-0.096,0.888-0.432,2.019-1.324,2.058c-0.382,0.018-0.732-0.194-1.051-0.407c-2.896-1.935-6.921-5.117-5.089-9.058
		c0.48-1.034,1.308-1.891,1.7-2.962c0.678-1.851-0.07-3.931,0.271-5.872c0.182-1.031,0.663-1.98,1.128-2.918
		c1.875-3.792,3.589-7.802,3.699-12.03c0.067-2.579-0.256-5.041,0.163-7.606c0.333-2.043,0.532-4.136-0.3-6.1
		c-0.87-2.054-2.725-3.591-3.483-5.688c-0.32-0.883-0.436-1.844-0.877-2.673c-0.893-1.676-2.88-2.424-4.739-2.812
		c-1.858-0.388-3.841-0.586-5.397-1.674c-1.776-1.241-2.64-3.378-3.628-5.306c-1.028-2.003-2.241-3.179-4.158-4.285
		c-1.483-0.855-2.98-1.788-3.635-3.455c-0.783-1.997-0.405-4.512-1.886-6.064c-0.746-0.783-1.819-1.139-2.766-1.663
		c-1.587-0.878-2.871-2.292-3.593-3.957c-0.493-1.137-0.735-2.392-1.413-3.43c-1.438-2.199-4.344-2.801-6.52-4.274
		c-0.73-0.495-1.385-1.095-2.116-1.589c-3.78-2.551-8.794-1.843-13.282-1.035c-0.688,0.124-1.407,0.262-1.951,0.701
		c-0.949,0.767-0.432,2.073-0.364,3.096c0.004,0.008,0.008,0.014,0.013,0.022c1.125,0.742,0.759,2.43-0.508,2.665
		c-1.07,0.199-2.119-0.328-3.197-0.423c-1.913-0.169-3.648,1.005-5.282,2.014c-3.501,2.163-7.337,3.782-11.329,4.783
		c-0.967,0.243-1.98,0.466-2.757,1.091c-0.447,0.359-0.776,0.816-1.03,1.325c-0.74,1.486-2.505,2.145-4.101,1.687
		c-0.82-0.235-1.631-0.498-2.434-0.788c-0.487-0.176-0.989-0.375-1.335-0.759c-0.407-0.452-0.531-1.083-0.674-1.674
		c-0.536-2.206-0.644-2.965-2.068-4.731c0.26-1.302-0.869-2.429-1.89-3.277c-9.368-7.783-19.173-15.793-31.07-18.553
		c-0.597-0.139-1.088-0.646-1.072-1.259c0.025-1.008,1.275-1.151,2.191-1.062c0.807,0.079,1.614,0.158,2.421,0.236
		c1.647,0.161,2.436-2.058,1.011-2.898c-0.012-0.007-0.023-0.013-0.034-0.02c-1.125-0.648-2.472-0.791-3.771-0.775
		c-2.319,0.028-4.631,0.522-6.759,1.443c-1.62,0.701-3.15,1.828-4.839,2.347c-1.508,0.462-3.269,0.486-4.843,0.725
		c-3.558,0.539-7.155,1.121-10.761,0.873c-0.382-0.026-0.698-0.317-0.768-0.694c-0.001-0.005-0.002-0.01-0.003-0.015
		c-0.084-0.453,0.211-0.883,0.663-0.976c1.458-0.3,2.988-1.034,3.865-2.195c0.362-0.48,3.076-5.354-2.397-2.298
		c-0.85-0.324-1.113-0.423-1.962-0.747l-1.924-5.75c-0.678-0.496-1.169-0.855-1.847-1.352c-3.106,0.128,3.066,7.853-0.088,12.002
		c-0.879,1.155-2.222,1.685-3.685,1.857c-1.573,0.185-2.995-1.097-2.812-2.67c0.071-0.612,0.029-1.218-0.207-1.793
		c-0.246-0.599-0.684-1.099-0.979-1.675c-1.367-2.667,0.628-5.759,2.52-8.083c-1.667,2.047-6.578-3.951-7.133-4.956
		c-1.313-2.375-1.606-3.668-0.551-5.61c0.451-0.83,1.337-1.332,2.281-1.333c10.676-0.017,21.582-0.211,31.583,0.001
		c12.678,0.269,25.356,0.457,38.035,0.667C89.754,30.266,105.221,29.784,105.448,30.637z"/>
	<path fill="#1B1C1D" d="M251.589,82.111c4.54,0,9.079,1.732,12.543,5.195h0.001c6.125,6.126,6.93,15.781,1.902,22.837
		l-13.479,18.916c-0.237,0.332-0.602,0.498-0.967,0.498c-0.364,0-0.729-0.166-0.966-0.498l-13.479-18.916
		c-5.028-7.056-4.224-16.711,1.903-22.837C242.51,83.843,247.049,82.111,251.589,82.111 M251.59,112.604
		c7.043,0,12.753-5.71,12.753-12.754s-5.71-12.754-12.753-12.754c-7.045,0-12.754,5.71-12.754,12.754
		S244.545,112.604,251.59,112.604 M251.589,78.111c-5.807,0-11.266,2.261-15.37,6.367c-7.538,7.536-8.519,19.306-2.333,27.986
		l13.479,18.916c0.97,1.362,2.549,2.177,4.224,2.177c1.673,0,3.252-0.813,4.224-2.175l13.48-18.917
		c6.185-8.68,5.204-20.45-2.331-27.986C262.854,80.373,257.396,78.111,251.589,78.111L251.589,78.111z M251.59,108.604
		c-4.827,0-8.754-3.927-8.754-8.754s3.927-8.754,8.754-8.754c4.826,0,8.753,3.927,8.753,8.754S256.416,108.604,251.59,108.604
		L251.59,108.604z"/>
	<path fill="#BBBBBB" d="M264.133,87.307L264.133,87.307c-6.928-6.927-18.16-6.927-25.086,0l0,0
		c-6.127,6.126-6.932,15.781-1.903,22.837l13.479,18.916c0.473,0.664,1.459,0.664,1.933,0l13.479-18.916
		C271.063,103.088,270.258,93.433,264.133,87.307z M251.59,112.604c-7.045,0-12.754-5.71-12.754-12.754s5.709-12.754,12.754-12.754
		c7.043,0,12.753,5.71,12.753,12.754S258.633,112.604,251.59,112.604z"/>
</g>
</svg>
