<?xml version="1.0" encoding="utf-8"?>
<!-- Generator: Adobe Illustrator 16.0.0, SVG Export Plug-In . SVG Version: 6.00 Build 0)  -->
<!DOCTYPE svg PUBLIC "-//W3C//DTD SVG 1.1//EN" "http://www.w3.org/Graphics/SVG/1.1/DTD/svg11.dtd">
<svg version="1.1" xmlns="http://www.w3.org/2000/svg" xmlns:xlink="http://www.w3.org/1999/xlink" x="0px" y="0px" width="300px"
	 height="300px" viewBox="0 0 300 300" enable-background="new 0 0 300 300" xml:space="preserve">
<g id="Guides_x2C__BKG">
	<rect x="-30" y="-30" fill="#1B1C1D" width="1020" height="360"/>
</g>
<g id="Layer_1">
	<path fill="#BBBBBB" d="M60.574,182.303c-5.272-10.699-8.837-22.378-10.37-34.68c1.452,0.837,3.033,1.675,4.748,2.509
		c1.675,10.858,5.019,21.152,9.74,30.653C63.449,181.36,62.077,181.872,60.574,182.303z M59.198,100.405
		c14.014-41.77,53.445-71.875,99.933-71.875c46.211,0,85.452,29.749,99.684,71.133c0.039,0.002,0.075,0,0.112,0
		c1.665,0.049,3.25,0.313,4.76,0.763c-14.202-44.2-55.695-76.286-104.556-76.286c-49.434,0-91.334,32.84-105.055,77.856
		c1.344-0.596,2.725-1.071,4.149-1.416C58.546,100.504,58.873,100.459,59.198,100.405z M85.439,147.965
		c-2.8-3.35-14.178-11.722-22.069-15c-7.894-3.283-12.306-6.731-13.237-10.351c-0.937-3.624,0.209-5.892,3.432-6.807
		c3.219-0.917,6.566-0.429,10.036,1.461c3.469,1.885,4.691,4.313,3.662,7.286l0.8,1.318l8.978-10.008
		c-0.609-3.887-2.917-6.891-6.918-9.007c-4.001-2.118-7.626-2.781-10.867-2.002c-3.242,0.778-6.226,2.354-8.953,4.717
		c-2.725,2.367-5.042,4.861-6.948,7.493c-1.908,2.63-2.908,5.93-3.001,9.896c-0.098,3.966,1.173,7.471,3.803,10.522
		c2.629,3.05,7.197,6.113,13.698,9.18c6.498,3.07,13.447,9.05,16.287,13.284c2.841,4.231,6.261,11.063,4.592,14.055
		c-1.955,3.504-9.646,13.97-27.701,13.97c-5.493,0-18.426-3.536-23.86-17.112c-1.446-3.606-1.461-6.551,0.255-8.947l-1.428-1.088
		l-9.265,10.636c-0.729,2.971,0.265,7.78,2.646,11.656c3.146,5.123,8.588,18.646,32.749,18.646
		c17.141,0,28.412-11.615,33.063-18.154C89.842,177.066,95.442,159.937,85.439,147.965z M127.092,141.255
		c-0.191,19.563,0.046,30.663,0.716,33.318c0.665,2.65,2.619,4.793,5.861,6.433l13.495-9.55l-0.912-2.462
		c-2.022,0.536-3.434-0.246-4.233-2.345c-0.801-2.092-0.972-20.605-0.514-55.532c-0.536-3.01-1.814-5.225-3.832-6.636l-12.071,7.723
		c1.032,1.751,1.641,4.156,1.833,7.207l0.055,13.211l-15.672-0.059l-4.458,5.206l0.344-26.997c-0.539-3.01-1.811-5.226-3.833-6.635
		l-12.066,7.721c1.029,1.794,1.637,4.195,1.827,7.208c-0.418,34.162-0.295,52.571,0.372,55.219c0.667,2.651,2.623,4.777,5.864,6.376
		l13.497-9.549l-0.915-2.461c-2.024,0.573-3.434-0.202-4.233-2.315c-0.801-2.12-1.085-10.46-0.857-25.024L127.092,141.255z
		 M283.5,180.351c0,0-6.942,6.786-10.407,10.18c-3.521,3.439-46.367,33.708-63.158-16.674
		c-6.792-20.375-12.395-30.006-18.875-28.252l-0.058,20.475c0.076,3.012,1.83,4.538,5.263,4.576l1.028,2.174
		c-0.381,0.112-4.308,2.63-11.781,7.548c-1.334-0.038-2.916-1.068-4.748-3.09c-1.827-2.019-2.935-4.953-3.316-8.807v-46.9
		c-0.456-3.582-1.657-5.66-3.605-6.23l-0.228-1.319l11.326-9.604c3.238,1.79,5.204,4.82,5.892,9.089
		c3.429-6.898,8.348-9.846,14.753-8.836c6.407,1.009,10.483,3.996,12.243,8.953c1.752,4.954,1.599,9.864-0.459,14.725
		c-2.058,4.862-6.979,8.359-14.756,10.495c6.708-0.229,11.292,5.414,15.014,16.53c17.641,52.748,60.363,25.308,65.016,22.903
		L283.5,180.351z M199.697,136.623c3.581-1.714,5.879-5.069,6.891-10.065c1.008-4.997-0.577-8.463-4.748-10.41
		c-4.176-1.944-7.808-1.258-10.898,2.057v23.34L199.697,136.623z M250.641,104.884c-2.42,0.648-5.545,2.371-9.378,5.175
		c-3.833,2.804-7.13,7.013-9.898,12.64c-2.763,5.623-0.75,11.845,6.037,18.672c-8.009,6.825-11.079,14.432-9.209,22.821
		c2.25,8.73,10.465,14.334,24.65,16.813c14.945-7.815,23.47-15.614,25.566-23.391c2.095-7.778-0.398-13.878-7.492-18.303
		l-10.581,13.44c5.678,4.499,7.995,8.428,6.949,11.781c-1.05,3.354-4.147,4.842-9.292,4.46c-5.149-0.379-10.144-2.973-14.987-7.777
		c-4.84-4.802-5.643-10.79-2.404-17.958c2.177,0.877,4.767,1.466,7.783,1.773l11.264-11.897l-1.028-1.259
		c-8.693,0-14.159-1.114-16.385-3.343c-2.232-2.234-3.169-5.142-2.805-8.724c0.362-3.585,2.364-5.741,6.006-6.46
		c3.639-0.727,7.129-0.291,10.465,1.312c3.336,1.603,4.756,3.851,4.262,6.748l1.258,0.859l9.667-10.464
		c-0.572-1.565-2.013-3.226-4.321-4.979c-2.307-1.75-4.964-2.681-7.977-2.771C255.779,103.958,253.062,104.234,250.641,104.884z
		 M191.44,88.774c0,0.554,0.355,1.021,0.718,1.021c0.344,0,1.063-0.467,1.409-1.021c0.598-0.802,0.357-0.917-0.703-0.917
		C191.918,87.857,191.44,88.202,191.44,88.774z M118.576,55.342c0.602,0.106,0.948-0.226,0.948-0.799
		c0-0.693-0.346-1.023-0.948-0.915C117.392,53.973,117.517,55.116,118.576,55.342z M211.221,87.402
		c-0.464,0.57-0.464,1.13-0.121,1.597c0.838,1.021,0,3.993-1.064,3.993c-0.948,0-2.728,2.169-2.728,3.189
		c0,1.251-1.528,0-1.888-1.368c-0.362-1.252-0.362-1.252-0.597-0.346c-0.23,1.038,1.065,4.229,2.141,5.135
		c0.706,0.692-0.601,1.834-1.544,1.366c-0.477-0.222-0.704-0.9-0.704-1.594c0-1.942-2.968-6.841-5.217-8.672
		c-1.193-0.907-2.26-1.928-2.26-2.274c0-0.691-3.791-2.848-5.924-3.539c-1.18-0.347-1.539-0.226-1.539,0.691
		c0,0.676-0.229,0.903-0.705,0.676c-1.067-0.452-1.546,0.573-0.598,1.6c1.303,1.25,1.074,2.737-0.346,2.164
		c-0.96-0.343-1.078-0.225-0.718,1.719c0.117,1.131,0.358,2.621,0.358,3.302c0,0.688,0.237,1.14,0.479,1.14
		c0.348,0,0.465-0.22,0.228-0.572c-0.122-0.349,0.12-0.677,0.598-0.677c0.355,0,0.705,0.451,0.705,0.909
		c0,0.46-0.469,0.914-1.303,0.793c-0.707,0-1.307-0.333-1.307-0.559c0-1.035-3.19-8.104-4.136-9.138
		c-1.063-1.133-0.355-1.478-8.765,3.883c-1.306,0.797-1.577,2.514-2.293,3.765c-0.586,1.255-1.531,2.514-2.01,2.744
		c-0.478,0.225-2.373,5.995-3.422,8.241c-3.167,6.795-0.986,17.313-1.083,32.527c0.279,8.908-0.046,26.695,0.753,28.809
		c0.804,2.12,1.888,3.116,3.26,3.005l1.89,1.77l-12.181,9.611c-3.243-1.638-5.195-3.784-5.865-6.435
		c-0.606-2.413-0.764-17.917-0.471-46.514c-0.076-10.717-0.596-22.262-1.054-25.535c-0.308-2.177-2.174-7.989-2.639-7.989
		c-0.12,0-0.958-1.828-1.783-2.627c-1.424-1.491-2.008-1.599-9.949-2.049c-8.531-0.466-8.531-0.466-8.531-0.466
		c-2.021,1.593-2.021,1.593-2.021,1.593c-1.182,1.039-2.363,1.721-2.711,1.721c-0.723,0-3.685,2.392-4.976,3.764
		c-0.12,0-0.243-0.121-0.243-0.229c-0.118,0-0.118,0-0.118-0.12c-0.12-0.331-0.241-0.678-0.479-1.023
		c0.72-0.57,1.305-0.916,1.544-0.797c0.358,0.227,0.707,0,0.707-0.57c0-0.575-0.707-0.799-2.594-0.575
		c-2.266,0.344-2.849,0.468-3.205,1.819c-0.588,0.7-0.708,1.722-0.364,2.517c-0.121,1.027-0.121,1.718,0,1.718
		c0.122,0,0.243-0.226,0.598-0.464c0,0.117,0.122,0.238,0.245,0.344c-1.187,0.343-1.787,1.372-1.666,2.394
		c-0.602,0.466-1.185,0.695-1.903,1.041c0,0,0-0.124-0.106-0.124c0.465-1.021,0.706-2.167,0.824-3.88
		c0.239-1.932,0.119-3.195-0.238-3.195c-0.242,0-0.479,0.466-0.479,1.146c0.117,0.575-0.106,1.144-0.587,1.249
		c-0.359,0.119-0.593-0.105-0.593-0.674c0-1.369-0.468-1.369-1.536-0.125c-0.479,0.463-1.42,1.024-2.247,1.267
		c-1.08,0.333-1.422,0.103-1.903-1.142c-0.361-1.028-0.599-2.169-0.361-2.625c0.121-0.569,0.121-1.038-0.343-1.038
		c-1.305,0-0.36-1.82,1.184-2.167c1.422-0.333,1.422-0.571,0.944-1.355c-0.359-0.572-0.479-1.266-0.239-1.488
		c0.118-0.352,0.718,0,1.062,0.672c0.482,0.92,0.837,1.042,1.787,0.467c0.583-0.344,1.06-0.571,1.06-0.223
		c0,0.223,0.361,0,0.826-0.466c0.718-0.678,0.839-2.168,0.12-2.966c-0.585-0.68-3.551-0.452-4.379,0.344
		c-0.475,0.574-0.836,0.454-1.301-0.569c-0.72-1.705-0.72-1.945,0.944-2.049c1.426,0,1.426,0,0.238-0.694
		c-0.596-0.331-1.182-1.021-1.182-1.476c0-1.143,1.65-1.822,2.37-1.024c0.24,0.332,0.705,0.68,1.183,0.68
		c0.945,0,5.454-3.87,5.454-4.67c0-0.35,0.467-0.573,0.944-0.35c0.583,0.123,1.647-0.223,2.728-0.795
		c1.528-0.918,1.528-1.024,0.702-2.516c-0.581-1.023-1.301-1.366-2.962-1.366c-1.894,0-2.37,0.225-2.955,1.597
		c-0.239,0.916-0.957,1.594-1.422,1.594c-0.828,0-1.063-1.026-0.237-1.594c0.355-0.231,0.596-1.029,0.596-1.825
		c0-1.251-0.241-1.475-1.784-1.144c-1.541,0.227-1.541,0.123-1.184-1.594c0.243-1.027,0.583-1.946,0.826-2.047
		c0.24-0.125,0.477-1.148,0.477-2.171c0-2.049,0.708-2.392,2.009-0.92c0.599,0.803,0.961,0.92,1.184,0.23
		c0.241-0.452,1.08-0.561,2.384-0.333c1.768,0.449,1.885,0.333,1.646-1.026c-0.118-0.797-0.238-1.715-0.36-1.94
		c0-0.347-0.58-0.797-1.287-1.144c-1.424-0.575-1.787-1.944-0.482-1.944c0.36,0,0.705-0.226,0.705-0.677
		c0-0.347,0.721-0.572,1.663-0.468c1.306,0.122,2.01-0.333,3.792-2.726c1.307-1.719,2.247-2.634,2.368-2.166
		c0.12,0.571,0.722,0.903,1.307,0.903c0.945,0,1.062-0.332,0.718-1.823c-0.122-1.022-0.718-2.275-1.075-2.847
		c-1.071-1.266-1.071-2.741,0-2.287c0.837,0.446,3.445-0.799,3.445-1.597c0-0.347,0.346-0.573,0.82-0.573
		c0.479,0,0.708,0.695,0.708,1.595c0,1.146,0.237,1.596,0.841,1.265c0.465-0.244,0.822-0.913,0.822-1.372
		c0-1.367,3.791-3.763,4.733-3.083c0.362,0.224,0.717,0,0.842-0.802c0.345-1.595,2.484-2.845,3.429-2.047
		c0.478,0.331,0.943,0.228,1.063-0.12c0.241-0.457,1.186-0.798,2.252-0.901c1.06-0.127,2.483-0.576,3.084-1.043
		c2.246-1.475,4.494-1.371,5.44,0.229c0.602,1.144,0.837,1.144,0.837,0.342c0-1.021,0.466-1.141,3.313-0.797
		c4.51,0.455,5.217,0.455,6.879-0.118c1.063-0.332,1.425-0.226,1.425,0.69c0,0.569,0.342,1.026,0.82,1.026
		c0.363,0,0.707-0.33,0.707-0.682c0-0.917,1.903-1.366,3.568-0.917c1.289,0.455,1.409,0.573,1.061,3.647
		c-0.12,1.835,0,3.085,0.228,3.085c0.237,0,0.479-0.801,0.479-1.942c0-1.93,1.302-2.728,1.78-1.143
		c0.124,0.569,0.466,0.341,0.708-0.559c0.601-2.396,1.902-1.148,1.54,1.474c-0.355,2.17-0.355,2.17,0.707,1.369
		c0.6-0.34,1.065-1.248,1.065-1.819c0-0.569,0.359-1.251,0.84-1.492c0.941-0.451,2.009,1.265,1.661,2.518
		c-0.12,0.57-0.12,1.024,0.225,1.024c0.239,0,0.481-0.337,0.481-0.571c0-0.336,0.583-0.453,1.305-0.229
		c1.543,0.347,1.769,1.266,0.462,1.825c-0.347,0.24-0.705,0.795-0.705,1.262c0,0.796,0.243,0.796,1.545,0
		c2.127-1.37,3.069-1.262,3.431,0.23c0.24,0.793,0.706,1.139,1.182,0.793c0.479-0.124,1.546,0.346,2.368,1.144
		c0.72,0.679,1.784,1.25,2.264,1.25c0.707,0,0.707,0.573,0.465,2.17c-0.241,1.719-0.241,1.947,0.479,1.25
		c0.943-1.131,1.302-1.023,1.649,0.574c0.118,0.793,0.957,1.371,1.904,1.716c1.061,0.224,1.65,0.797,1.65,1.475
		c0,0.694,0.359,1.49,0.717,1.943c0.942,0.798,0.703,3.191-0.358,3.993c-0.359,0.237-0.829,0.121-0.949-0.23
		c-0.238-0.346-1.061-0.346-2.605,0c-2.488,0.8-2.953,1.027-2.37,2.063c0.362,0.677,4.499,0.451,6.759-0.346
		c0.706-0.344,0.943,0,0.943,1.597c0,1.144-0.237,2.047-0.595,2.047c-0.241,0-0.465,0.345-0.465,0.921
		c0,1.369,0.583,1.25,2.127-0.348c0.824-0.915,1.304-1.142,1.89-0.574c0.598,0.574,0.719,0.574,0.719-0.341
		c0-0.562-0.238-1.026-0.597-1.026c-0.228,0-0.466-0.456-0.466-0.907c0-0.573,0.345-1.024,0.825-1.024
		c0.359,0,0.837,0.228,0.837,0.561c0,0.344,0.465,0.797,1.063,0.914c0.825,0.35,1.066,0.8,0.945,2.168
		c-0.242,2.629,0.239,3.421,2.008,2.969c0.837-0.223,1.303,0,0.945,0.452c-0.107,0.227,0,0.8,0.237,1.038
		c0.958,0.678,0.599,2.276-0.466,2.276c-1.301,0-1.658,0.571-0.953,1.594c0.475,0.575,0.836,0.678,1.301,0.226
		c1.077-1.141,1.304-0.226,1.424,4.339c0,2.286,0.237,4.111,0.479,4.111C212.287,83.865,212.061,86.378,211.221,87.402z
		 M115.507,65.267c-0.717-0.119-1.305-0.451-1.545-0.916c-0.122-0.682-0.242-0.682-0.242,0c0,0.465-0.477,0.797-0.94,0.916
		c-0.841,0-0.841,0.118,0.12,0.572c0.583,0.224,1.183,0.573,1.303,0.573c0.104,0,0.703-0.35,1.305-0.573
		C116.571,65.267,116.571,65.267,115.507,65.267z M113.72,89.678C113.244,89,112.9,89,112.181,89.573
		c-0.479,0.333-0.827,0.904-0.827,1.249c0.241,0.918,1.426,1.026,2.366,0.227C114.306,90.594,114.306,90.371,113.72,89.678z
		 M163.477,65.947c0.241,1.713,0.84,3.431,1.183,3.767c0.597,0.568,0.718,0,0.839-3.54c0-4.326-0.599-5.695-1.902-4.219
		C163.012,62.747,163.012,63.548,163.477,65.947z M164.9,73.14c0-0.69-0.121-0.797-0.359-0.345
		c-0.104,0.455-0.104,1.023,0.119,1.254C164.779,74.274,165.02,73.819,164.9,73.14z M157.316,66.64
		c-0.237,0.22-0.585,2.391-0.825,4.907c-0.477,3.761-0.477,4.907,0.24,6.505c0.467,1.129,0.945,2.049,0.945,2.049
		c0.121,0,0.706-0.693,1.185-1.596c0.596-0.8,1.542-1.717,1.9-2.051c1.413-1.039,1.771-4.232,0.589-6.4
		C160.402,68.114,157.797,65.947,157.316,66.64z M156.491,106.1c0.359,2.272,0.359,2.272,1.543-2.619
		c0.708-2.64,1.77-5.703,2.489-8.32c0.944-3.314,1.307-6.055,1.307-9.926c0-5.03-0.122-5.134-1.069-4.564
		c-2.14,1.479-3.327,5.586-3.8,13.571c-0.23,4.112-0.47,7.066-0.708,7.974C156.133,103.131,156.253,104.851,156.491,106.1z
		 M155.43,50.886c0,0.348,0.225,0.798,0.584,1.04c0.239,0.227,0.477,0.103,0.477-0.242c0-0.45-0.238-0.906-0.477-1.131
		C155.654,50.314,155.43,50.434,155.43,50.886z M148.086,64.575c0,0.345,0.344,0.573,0.703,0.573c0.481,0,0.946-0.228,1.064-0.573
		c0.241-0.454-0.118-0.681-0.703-0.681C148.551,63.895,148.086,64.122,148.086,64.575z M142.51,43.704
		c0.359,0.452,1.305-2.969,1.305-4.34c0-0.566-0.356,0.124-0.827,1.493C142.63,42.33,142.393,43.585,142.51,43.704z M140.143,57.043
		c0,0.572,0.238,0.919,0.478,0.919c0.349,0,0.586-0.348,0.586-0.919c0-0.453-0.237-0.901-0.586-0.901
		C140.381,56.143,140.143,56.59,140.143,57.043z M139.544,65.492c0,0.8,2.021,0.227,2.849-0.8c1.184-1.714,1.066-2.165-0.48-2.165
		C140.85,62.527,139.544,64.122,139.544,65.492z M133.505,64.816c0.72,0.568,1.303,0.796,1.303,0.451
		c0-0.798-2.009-2.289-2.366-1.821C132.2,63.548,132.798,64.241,133.505,64.816z M134.331,73.716
		c-0.705-1.837-1.533-2.742-3.075-3.312c-1.182-0.453-2.37-0.69-2.727-0.575c-0.363,0.122,1.063,1.596,3.088,3.311
		C135.408,76.108,135.408,76.108,134.331,73.716z M129.475,64.241c-1.067,0.8-0.468,2.848,1.075,3.195
		c0.826,0.224,2.129,1.142,2.955,2.052c0.72,0.915,1.303,1.257,1.303,0.915C134.808,69.26,130.074,63.778,129.475,64.241z
		 M128.292,50.087c0.116,0.798,0.594,1.49,0.837,1.49c0.463,0,0.116-2.514-0.48-3.189C128.166,47.812,128.049,48.837,128.292,50.087
		z M126.28,61.277c-1.661,0-1.661,0.107-0.704,1.025c1.183,1.023,1.531,1.143,2.008,0.445
		C128.408,61.848,127.822,61.277,126.28,61.277z M125.097,80.445c-0.478-0.118-0.943,0-1.064,0.335
		c-0.237,0.342,0.122,0.571,0.708,0.571C126.042,81.351,126.162,81.003,125.097,80.445z M125.576,58.656
		c0.704,0,0.824-0.12,0.344-0.467c-0.344-0.109-0.823-0.109-1.062,0.12C124.741,58.537,125.097,58.76,125.576,58.656z
		 M123.795,54.892c0.586,0.224,1.781,0.45,2.367,0.556c0.703,0,0.703-0.226-0.479-0.905c-0.824-0.57-1.888-0.796-2.367-0.57
		C122.49,54.427,122.608,54.543,123.795,54.892z M120.12,66.412c4.381,2.167,5.219,2.167,5.097,0.104
		c0-1.249-1.787-3.988-2.488-3.988c-0.837,0-4.391,2.165-4.391,2.621C118.339,65.384,119.178,65.947,120.12,66.412z M119.644,71.547
		c1.783,2.272,2.606,2.503,3.551,1.02c0.959-1.362,0.121-2.285-2.726-2.616C118.099,69.606,118.099,69.606,119.644,71.547z
		 M118.339,79.408c0,0.346,0.237,0.693,0.596,0.693c0.589,0,2.249-2.049,1.892-2.396C120.469,77.241,118.339,78.727,118.339,79.408z
		 M117.632,82.601c1.65,0.119,1.65,0.119,1.65,0.119c1.664,0,3.325-1.476,3.325-2.739C122.608,79.181,122.49,79.181,117.632,82.601z
		 M122.371,90.477c-0.707,0.344-0.828,0.452-0.241,0.571c0.479,0,1.186-0.227,1.666-0.571
		C124.619,89.678,123.913,89.678,122.371,90.477z M134.45,86.14c-0.823-0.226-2.711-0.797-4.255-1.369
		c-2.731-1.026-8.303-0.68-8.89,0.464c-0.122,0.225-0.716,0.346-1.306,0.225c-1.182-0.346-2.367,0.57-2.724,2.396
		c-0.481,1.472,0.357,1.595,3.551,0.345c1.183-0.464,4.977-0.919,8.418-0.919C135.751,87.179,137.059,86.83,134.45,86.14z
		 M140.021,85.235c-1.18-1.144-2.009-2.396-2.009-2.969c0-0.451-1.539-2.061-3.32-3.539c-1.773-1.486-3.436-2.963-3.673-3.419
		c-0.237-0.569-0.363-0.569-0.363,0.107c0,0.693-0.582,0.798-2.49,0.452c-1.301-0.222-2.363-0.222-2.363-0.104
		c0,0.228,0.477,1.593,0.956,2.963c0.825,2.276,1.187,2.737,3.791,3.647c1.65,0.571,4.258,1.943,5.923,2.968
		c1.539,1.036,3.432,1.836,4.147,1.836C141.912,87.179,141.808,87.058,140.021,85.235z M142.51,81.575
		c-1.063-1.369-1.781-2.848-1.89-3.192c0-0.45-0.599-1.594-1.302-2.619c-0.715-1.025-1.546-2.289-1.902-2.744
		c-1.183-1.594-0.944-0.224,0.355,3.312c0.832,2.396,2.249,4.569,3.914,6.389C144.761,85.805,145.116,85.235,142.51,81.575z
		 M144.293,70.054c-0.239-1.711-0.479-1.94-1.783-1.94c-1.541,0-1.541,0.117-1.424,2.512c0,1.477,0.241,3.192,0.362,3.991
		c0.117,0.797,0.586,1.595,1.063,1.713C143.459,76.907,144.519,72.912,144.293,70.054z M152.585,93.335
		c0.701,1.598,1.422,2.847,1.542,2.847c0.583,0-0.599-10.493-1.427-13.688c-0.717-2.74-0.945-5.253-0.823-9.244
		c0.106-2.969,0-5.59-0.243-5.814c-0.118-0.228-0.938-0.228-1.66,0c-1.301,0.451-1.422,0.794-1.422,3.31
		c0,1.933-0.24,2.97-0.826,3.42c-1.662,1.022-1.541,6.836,0,11.176c0.705,2.06,1.77,3.986,2.368,4.453
		C150.695,90.145,151.876,91.74,152.585,93.335z M169.755,82.04c-1.422,1.705-1.422,1.705-1.422,1.705
		c-0.707,0.919-1.182,1.944-1.182,2.286c0,0.907-2.251,6.61-2.954,7.636c-0.363,0.575-0.958,1.838-1.068,2.74
		c-0.597,2.624,0.467,2.168,1.771-0.902c0.72-1.369,1.902-3.658,2.726-5.028c0.942-1.478,1.543-3.419,1.785-5.362
		C169.755,82.04,169.755,82.04,169.755,82.04z M168.932,63.326c-0.121,0.222-0.121,1.822,0.237,3.534
		c0.362,2.969,0.466,3.091,0.586,0.923C169.876,64.241,169.635,62.527,168.932,63.326z M175.917,76.789
		c0.597,0,1.303-0.227,1.541-0.576c0.357-0.905-0.824-0.905-1.889,0C174.853,76.681,174.972,76.789,175.917,76.789z M172.363,60.583
		c0.359,1.599,0.359,1.599,0.716,0.226c0.466-1.367,0-3.417-0.716-3.417c-0.345,0-0.469,0.348-0.469,0.798
		C171.894,58.656,172.125,59.785,172.363,60.583z M173.545,66.64c0.843-1.824,0.843-2.064,0.12-2.064
		c-0.462,0-0.943,0.345-1.063,0.917c-0.238,0.455-0.238,1.489-0.118,2.052C172.602,68.46,172.842,68.343,173.545,66.64z
		 M174.609,79.181c-0.944-0.454-1.648,0.573-1.648,2.394c-0.118,1.371-0.118,1.371,1.428-0.572
		C175.448,79.754,175.448,79.527,174.609,79.181z M180.306,82.601c0-1.93-1.663-1.357-3.434,1.144
		c-0.717,1.266-1.303,2.286-1.183,2.512c0.105,0.122,0.466-0.117,0.825-0.676c0.358-0.466,1.425-1.038,2.249-1.264
		C179.825,83.97,180.306,83.412,180.306,82.601z M186.224,49.636c0.241,0.917,0.944,0.119,0.944-1.249
		c0-0.694-0.118-0.8-0.583-0.229C186.224,48.491,186.106,49.182,186.224,49.636z M180.889,67.437c0,0.567,0.24,1.023,0.479,1.023
		c0.601,0,1.308-1.82,0.947-2.398C181.846,65.492,180.889,66.412,180.889,67.437z M183.977,80.671c-0.361,0-1.301-0.119-2.131-0.344
		c-1.182-0.454-1.182-0.454-0.359,0.573c0.946,1.25,1.426,1.366,2.49,0.451C184.684,80.78,184.684,80.78,183.977,80.671z
		 M186.945,85.46c-0.121-0.45-0.245-1.026-0.245-1.143c0-0.107-0.477-0.107-1.063,0.117c-0.953,0.229-0.953,0.576-0.473,1.146
		C185.982,86.83,187.41,86.83,186.945,85.46z M188.128,65.838c-0.96,0-1.663,0.454-2.022,1.25c-0.227,0.798-0.469,1.254-0.348,1.254
		c0,0,0.942-0.683,2.009-1.254C189.548,65.838,189.548,65.838,188.128,65.838z M190.493,71.547c-1.42,0.556-1.42,0.556-0.357,1.249
		c0.946,0.572,1.305,0.572,1.782-0.229C192.865,71.319,192.265,70.746,190.493,71.547z M196.174,68.114
		c1.663,0.346,1.784,0.346,0.841-0.57c-1.079-1.132-4.032-1.482-3.206-0.455C194.166,67.437,195.228,67.887,196.174,68.114z
		 M197.836,82.266c-0.358-0.226-0.944-0.226-1.302,0c-0.361,0.108,0,0.334,0.706,0.334
		C197.958,82.601,198.307,82.375,197.836,82.266z M202.935,90.145c0-0.572-0.242-1.038-0.601-1.038c-0.344,0-0.943-0.574-1.301-1.25
		c-0.344-0.678-1.067-1.373-1.65-1.373c-1.076,0-1.076,0.122,0.344,1.489C202.813,91.048,202.935,91.167,202.935,90.145z
		 M201.99,70.404c-0.599,0.342-0.957,1.021-0.838,1.369c0.597,0.906,1.304,0.677,1.903-0.799
		C203.64,69.606,203.399,69.378,201.99,70.404z M208.386,89.573c0-0.244-0.476-0.466-0.835-0.694
		c-0.465-0.222-0.825-0.104-0.825,0.228c0,0.346,0.36,0.689,0.825,0.689C207.91,89.796,208.386,89.678,208.386,89.573z
		 M208.613,84.664c-0.117-0.347-0.703-0.799-1.183-0.799c-0.345,0-0.583,0.452-0.345,0.799c0.104,0.346,0.585,0.571,1.063,0.571
		C208.613,85.235,208.733,85.01,208.613,84.664z M209.088,78.052c-0.355-0.811-2.363-0.811-2.363,0c0,0.905,0.705,1.249,1.771,0.905
		C208.971,78.727,209.213,78.382,209.088,78.052z M209.916,82.946c0-0.452-0.237-0.906-0.466-0.906
		c-0.361,0-0.596,0.226-0.596,0.561c0,0.345,0.235,0.812,0.596,1.036C209.678,83.865,209.916,83.519,209.916,82.946z
		 M113.364,61.277c0.477,0,0.719-0.347,0.477-1.026c-0.121-0.466-0.477-0.916-0.718-0.916c-0.343,0-0.464,0.45-0.464,0.916
		C112.659,60.809,112.9,61.277,113.364,61.277z M108.027,99.83c0.243-0.682,0-1.024-0.461-1.024c-0.482,0-0.826,0.464-0.826,1.024
		c0,0.465,0.228,0.917,0.585,0.917C107.565,100.747,107.92,100.295,108.027,99.83z M98.33,232.633c0,0-4.173-0.526-6.589-0.526
		c-2.24,0-5.534,0.438-5.534,0.438l0.659-2.942c2.416-0.439,3.163-1.23,3.514-3.689l2.064-16.779c0.22-1.889,0-2.372-1.01-2.372
		c-0.571,0-1.45,0.088-1.45,0.088l-0.176-0.396l0.659-2.636c0,0,3.733,0.132,5.402,0.132c1.977,0,6.369-0.219,6.369-0.219
		c7.687,0,12.606,4.216,12.606,11.332C114.845,225.122,107.817,232.633,98.33,232.633z M108.037,215.591
		c0-5.491-2.679-8.17-8.082-8.17c-0.922,0-1.186,0.22-1.317,1.054c-1.142,6.984-2.768,17.087-2.768,18.141
		c0,1.801,0.791,2.328,3.163,2.328C104.611,228.943,108.037,223.849,108.037,215.591z M119.492,232.633
		c1.669,0,3.821-1.581,7.643-5.71l-0.747-1.537l-0.747-0.088c-2.196,1.933-2.547,2.196-2.899,2.196l-0.176-0.176
		c1.054-7.423,3.119-14.803,3.119-14.803l-0.527-0.702c0,0-5.139,0.395-8.39,0.395l-0.439,2.592h1.538
		c1.186,0,1.669,0.483,1.669,1.669c0,1.406-2.108,13.968-2.108,13.968C117.428,231.887,118.042,232.633,119.492,232.633z
		 M120.458,204.39c0,1.537,0.878,2.68,2.592,2.68c2.24,0,3.821-1.713,3.821-4.041c0-1.581-0.878-2.592-2.504-2.592
		C122.04,200.437,120.458,202.105,120.458,204.39z M123.897,236.718l0.131-0.351c1.45-1.055,4.612-2.812,7.555-4.437l0.044-0.352
		c-1.713-0.879-2.723-3.031-2.723-5.93c0-6.721,5.358-14.012,10.322-14.012l3.865,0.79l0.351-1.01l0.527-0.264l3.514,0.571
		l0.483,0.79c-1.45,2.899-2.416,6.062-2.635,8.214c-0.264,2.196-0.527,8.346-0.791,10.63c-0.615,5.008-7.818,11.332-12.87,11.332
		C127.147,242.735,123.59,239.969,123.897,236.718z M134.307,223.233c0,2.152,0.527,3.865,1.23,3.865
		c1.142,0,3.734-4.612,6.237-10.762c-0.922-0.482-2.547-1.229-3.865-1.229C136.108,215.107,134.307,219.236,134.307,223.233z
		 M129.081,236.06c0,1.317,2.24,2.679,4.524,2.679c3.382,0,5.798-2.327,6.325-6.369l1.01-8.389l-0.396-0.132
		c-3.207,5.402-4.436,6.983-6.237,8.258C132.155,233.6,129.081,235.488,129.081,236.06z M152.413,232.633
		c1.669,0,3.82-1.581,7.643-5.71l-0.748-1.537l-0.746-0.088c-2.196,1.933-2.548,2.196-2.899,2.196l-0.176-0.176
		c1.054-7.423,3.118-14.803,3.118-14.803l-0.527-0.702c0,0-5.138,0.395-8.389,0.395l-0.439,2.592h1.537
		c1.187,0,1.669,0.483,1.669,1.669c0,1.406-2.108,13.968-2.108,13.968C150.348,231.887,150.962,232.633,152.413,232.633z
		 M159.792,203.028c0-1.581-0.878-2.592-2.505-2.592c-2.327,0-3.908,1.669-3.908,3.953c0,1.537,0.878,2.68,2.59,2.68
		C158.211,207.069,159.792,205.356,159.792,203.028z M169.912,212.12c0.703-3.206,1.582-6.149,1.582-6.149l-0.439-0.526
		l-5.622,1.537c0,0-0.309,2.724-0.66,5.095l-3.338,0.527l-0.264,2.021l0.133,0.22l2.723,0.088l0.307,0.264l-2.196,13.046
		c-0.307,2.723,1.23,4.392,4.129,4.392c1.362,0,4.086-2.503,6.764-5.886l-0.703-1.581l-0.746-0.132
		c-1.89,1.889-2.812,2.548-3.514,2.548c-0.748,0-1.011-0.483-0.878-1.449l2.108-11.069l0.527-0.308l4.699,0.044l0.396-2.46
		l-0.22-0.22H169.912z M193.556,212.516c0,0-2.108,7.862-3.163,14.803l0.176,0.176c0.351,0,0.791-0.352,2.899-2.196l0.746,0.088
		l0.703,1.537c-4.129,4.349-5.974,5.71-7.643,5.71c-1.273,0-1.888-0.57-1.888-1.669c0-0.834,1.054-5.578,1.493-7.335l-0.351-0.044
		c-2.636,4.743-4.744,7.423-7.073,9.048c-3.163,0-5.007-2.371-5.007-6.412c0-7.072,5.446-14.583,10.586-14.583l3.821,0.79
		l0.308-0.966l0.482-0.308l3.559,0.615L193.556,212.516z M187.538,216.381c-1.318-0.79-2.767-1.273-3.865-1.273
		c-1.845,0-3.778,4.393-3.778,8.653c0,2.152,0.439,3.733,0.966,3.733C182.179,227.494,185.341,222.223,187.538,216.381z
		 M198.541,232.633c1.712,0,3.82-1.581,7.643-5.71l-0.703-1.537l-0.791-0.088c-2.196,1.933-2.548,2.196-2.899,2.196l-0.133-0.176
		c1.23-9.049,5.007-26.882,5.007-26.882l-0.527-0.703c0,0-5.138,0.396-8.477,0.396l-0.396,2.592h1.539
		c1.185,0,1.669,0.483,1.669,1.581c0,1.493-3.998,25.125-3.998,26.267C196.476,231.931,197.178,232.633,198.541,232.633z
		 M118.138,255.371l3.294-0.264c0.747-3.997,1.933-7.511,1.933-7.511l-0.264-0.571c0,0-3.338-1.142-7.555-1.142
		c-7.072,0-12.035,3.997-12.035,9.443c0,4.129,3.646,6.018,6.808,7.73c2.46,1.317,4.568,2.548,4.568,4.48
		c0,2.24-1.977,3.733-4.788,3.733c-3.558,0-4.437-1.493-3.866-6.193l-3.646,0.308c-0.483,3.646-1.669,7.423-1.669,7.423l0.307,0.615
		c0,0,3.25,1.669,7.731,1.669c7.643,0,12.562-3.865,12.562-9.531c0-4.7-5.051-6.501-8.477-8.478
		c-1.757-1.054-3.075-2.152-3.075-3.689c0-2.021,1.889-3.514,4.436-3.514c2.548,0,3.69,0.834,3.69,2.942
		c0,0.791-0.308,2.284-0.308,2.284L118.138,255.371z M141.102,261.169c0,7.906-4.656,13.924-10.937,13.924
		c-3.909,0-6.325-2.942-6.325-7.862c0-7.599,4.656-13.484,10.849-13.484C138.773,253.746,141.102,256.425,141.102,261.169z
		 M135.567,263.014c0-3.558-0.922-5.358-2.679-5.358c-2.152,0-3.646,3.338-3.646,8.17c0,3.602,1.01,5.754,2.635,5.754
		C134.162,271.579,135.567,268.416,135.567,263.014z M152.772,242.193c0,0-5.14,0.396-8.478,0.396l-0.395,2.592h1.537
		c1.186,0,1.669,0.483,1.669,1.581c0,1.493-3.997,25.125-3.997,26.267c0,1.362,0.703,2.064,2.064,2.064
		c1.713,0,3.822-1.581,7.643-5.71l-0.703-1.537l-0.791-0.088c-2.196,1.933-2.547,2.196-2.898,2.196l-0.132-0.176
		c1.23-9.049,5.008-26.882,5.008-26.882L152.772,242.193z M173.349,267.758c-2.372,2.021-2.548,2.196-2.899,2.196l-0.176-0.176
		c1.054-6.94,3.12-14.715,3.12-14.715l-0.572-0.659l-3.602-0.263l-0.658,0.351l-0.615,4.041c-2.723,6.589-5.579,11.201-6.94,11.201
		c-0.703,0-1.011-0.396-1.011-1.273c0-2.064,3.777-13.485,3.777-13.485l-0.527-0.703c0,0-5.138,0.396-8.389,0.396l-0.439,2.592
		h1.494c1.185,0,1.669,0.439,1.669,1.493c0,2.021-2.899,9.708-2.899,12.123c0,2.548,1.933,4.173,5.183,4.173
		c2.151-1.581,4.348-4.655,6.589-9.355l0.394,0.044c-0.394,1.669-1.581,6.721-1.581,7.687c0,1.099,0.615,1.669,1.89,1.669
		c1.669,0,3.381-1.273,7.643-5.71l-0.703-1.537L173.349,267.758z M184.642,254.58c0.703-3.206,1.582-6.149,1.582-6.149l-0.439-0.526
		l-5.622,1.537c0,0-0.309,2.723-0.66,5.095l-3.338,0.527l-0.264,2.021l0.133,0.22l2.723,0.088l0.307,0.264l-2.196,13.045
		c-0.307,2.724,1.23,4.393,4.129,4.393c1.363,0,4.086-2.503,6.764-5.886l-0.703-1.581l-0.746-0.132
		c-1.89,1.889-2.812,2.548-3.514,2.548c-0.748,0-1.011-0.483-0.878-1.45l2.108-11.068l0.527-0.308l4.699,0.044l0.396-2.46
		l-0.22-0.22H184.642z M199.496,267.758c-2.196,1.933-2.547,2.196-2.899,2.196l-0.176-0.176c1.054-7.423,3.12-14.803,3.12-14.803
		l-0.527-0.703c0,0-5.14,0.396-8.39,0.396l-0.439,2.592h1.539c1.185,0,1.669,0.483,1.669,1.669c0,1.405-2.108,13.968-2.108,13.968
		c0,1.45,0.615,2.196,2.063,2.196c1.669,0,3.822-1.581,7.643-5.71l-0.746-1.537L199.496,267.758z M194.313,246.85
		c0,1.537,0.878,2.68,2.593,2.68c2.239,0,3.82-1.713,3.82-4.041c0-1.581-0.878-2.592-2.503-2.592
		C195.895,242.896,194.313,244.565,194.313,246.85z M219.789,261.169c0,7.906-4.656,13.924-10.937,13.924
		c-3.909,0-6.325-2.942-6.325-7.862c0-7.599,4.656-13.484,10.85-13.484C217.461,253.746,219.789,256.425,219.789,261.169z
		 M214.255,263.014c0-3.558-0.922-5.358-2.68-5.358c-2.152,0-3.646,3.338-3.646,8.17c0,3.602,1.01,5.754,2.635,5.754
		C212.849,271.579,214.255,268.416,214.255,263.014z M240.841,267.67c-2.239,1.977-2.548,2.196-2.899,2.196l-0.131-0.132
		c0.57-2.812,3.163-9.093,3.163-11.552c0-2.636-1.933-4.437-4.876-4.437c-2.196,1.317-4.656,4.743-7.116,9.883l-0.264-0.044
		c0.66-4.217,2.065-8.609,2.065-8.609l-0.484-0.703c0,0-5.138,0.396-8.389,0.396l-0.439,2.592h1.537
		c1.275,0,1.757,0.483,1.669,1.801c-0.219,1.977-2.372,15.154-2.372,15.154l0.572,0.702c1.976,0,4.436-0.878,4.568-1.625
		l0.394-3.118c2.505-6.369,5.183-10.806,6.634-10.806c0.703,0,1.142,0.571,1.142,1.537c0,2.372-3.032,9.927-3.032,12.211
		c0,1.318,0.703,1.933,2.108,1.933c1.714,0,3.822-1.625,7.643-5.71l-0.703-1.537L240.841,267.67z M253.101,257.436
		c1.406,0,2.636,1.01,3.25,2.592h0.878c0.615-1.099,1.45-2.768,2.108-4.48c-1.186-1.099-3.294-1.801-5.535-1.801
		c-4.612,0-8.301,3.118-8.301,7.071c0,2.812,2.24,4.305,4.172,5.622c1.494,1.011,2.812,1.89,2.812,3.119
		c0,1.142-1.01,1.977-2.46,1.977c-2.284,0-3.821-1.493-3.909-3.865l-0.878-0.044c-0.791,1.054-1.801,3.338-2.108,4.832
		c0.527,1.581,2.987,2.635,6.062,2.635c4.832,0,8.785-3.25,8.785-7.203c0-3.47-3.558-4.964-5.578-6.589
		c-0.791-0.615-1.318-1.229-1.318-2.021C251.08,258.227,252.002,257.436,253.101,257.436z"/>
</g>
</svg>
