<?xml version="1.0" encoding="utf-8"?>
<!-- Generator: Adobe Illustrator 16.0.0, SVG Export Plug-In . SVG Version: 6.00 Build 0)  -->
<!DOCTYPE svg PUBLIC "-//W3C//DTD SVG 1.1//EN" "http://www.w3.org/Graphics/SVG/1.1/DTD/svg11.dtd">
<svg version="1.1" xmlns="http://www.w3.org/2000/svg" xmlns:xlink="http://www.w3.org/1999/xlink" x="0px" y="0px" width="300px"
	 height="300px" viewBox="0 0 300 300" enable-background="new 0 0 300 300" xml:space="preserve">
<g id="Guides_x2C__BKG">
	<rect x="-690" y="-30" fill="#1B1C1D" width="1020" height="360"/>
</g>
<g id="Layer_1">
	<path fill="#BBBBBB" d="M246.497,159.239l-0.539,2.382c16.097,4.588,7.508,23.158-4.048,24.372l-0.586,2.384
		c15.471,3.912,8.095,23.068-4.001,24.371l-0.584,2.384c12.636,2.068,9.577,23.606-9.532,23.606l-95.239,0.046
		c-6.698,0-12.814-7.689-17.762-7.689h-4.316V156.99c5.353-3.373,11.961-7.688,15.644-10.791c6.93-5.93,35.35-51.851,35.35-57.606
		c0-5.756-0.585-30.616-0.585-30.616s5.53-7.195,17.986-1.934c0,0,10.477,19.649,11.556,35.304c0,0-4.723,32.184-7.24,42.301h65.965
		C264.798,133.693,261.694,156.855,246.497,159.239z M70.639,226.083c-4.553,0-8.246,3.691-8.246,8.246
		c0,4.554,3.693,8.244,8.246,8.244c4.554,0,8.245-3.69,8.245-8.244C78.884,229.774,75.192,226.083,70.639,226.083z M267.77,188.138
		c2.74,9.282,0.222,19.404-4.671,26.883c1.574,6.464,1.423,15.688-2.703,23.977c-4.136,8.305-13.514,18.205-34.717,18.205h-93.62
		c-4.899,0-9.12-1.306-12.654-2.94c-3.065,5.883-9.223,9.908-16.304,9.908H40.373c-9.551,0-17.61-7.431-18.348-16.92L22,246.931
		v-96.819c0-10.481,8.527-19.008,19.009-19.008h69.827c1.174,0,2.328,0.107,3.459,0.321c2.462-2.862,6.808-8.694,13.217-18.975
		c5.873-9.422,11.852-20.028,15.061-26.677c-0.145-7.732-0.575-26.17-0.6-27.246c-0.212-6.478,3.983-18.313,21.082-21.977
		c2.216-0.477,4.529-0.721,6.865-0.721c10.531,0,21.141,4.975,24.674,11.572c0.522,0.985,12.352,23.517,13.646,42.707h-0.002
		c0.174,2.892-1.89,15.864-3.455,25.159l45.439-0.037c11.784,0,21.336,6.117,25.556,16.363c3.972,9.64,2.496,21.225-3.424,29.904
		C275.526,171.974,271.984,181.738,267.77,188.138z M250.229,123.531l-55.308,0.045c2.113-11.68,5.173-31.116,5.037-32.909
		c-1.17-17.357-12.232-38.496-12.682-39.344c-2.022-3.778-12.231-8.865-22.481-6.656c-13.221,2.833-14.614,11.281-14.524,13.619
		c0,0,0.54,23.113,0.634,29.272c-6.344,13.896-28.204,50.502-34.809,53.286c-1.624-0.946-3.371-1.439-5.26-1.439H41.009
		c-5.941,0-10.707,4.766-10.707,10.708v96.497c0.403,5.217,4.856,9.261,10.071,9.261h62.728c5.537,0,10.072-4.494,10.072-10.071
		v-3.191c0,0,2.334-0.18,3.372,0.493c4.048,2.563,9.033,5.803,15.514,5.803h93.62c34.98,0,31.25-31.072,28.057-35.3
		c5.892-6.431,9.534-17.807,4.542-26.755c3.867-4.091,10.611-15.242,4.542-26.8C274.959,147.998,271.229,123.531,250.229,123.531z"
		/>
</g>
</svg>
