<?xml version="1.0" encoding="iso-8859-1"?>
<!-- Generator: Adobe Illustrator 16.0.0, SVG Export Plug-In . SVG Version: 6.00 Build 0)  -->
<!DOCTYPE svg PUBLIC "-//W3C//DTD SVG 1.1//EN" "http://www.w3.org/Graphics/SVG/1.1/DTD/svg11.dtd">
<svg version="1.1" xmlns="http://www.w3.org/2000/svg" xmlns:xlink="http://www.w3.org/1999/xlink" x="0px" y="0px"
	 width="262.126px" height="131.666px" viewBox="0 0 262.126 131.666" enable-background="new 0 0 262.126 131.666"
	 xml:space="preserve">
<g id="Guides_1_">
</g>
<g id="Notes">
</g>
<g id="Client_Files" display="none">
</g>
<g id="Artwork">
	<g id="WebCare_x0D_Presence__x28_Tex_Gyre_Termes_x29_">
		<path fill="#7F7F7F" d="M62.992,9.889L48.303,51.868h-1.08L35.701,21.409L24.612,51.868h-1.08L9.635,13.201
			C6.971,6.433,5.891,5.136,2.219,4.776V3.408h17.641v1.368c-3.672,0.216-4.68,0.72-4.68,2.304c0,0.792,0.288,2.017,0.792,3.313
			L26.34,37.467l7.705-20.306l-2.376-5.904c-2.448-5.761-3.169-6.408-7.272-6.48V3.408h19.226v1.368
			c-3.888,0.072-5.544,0.792-5.544,2.521c0,0.792,0.432,2.16,1.08,3.672l0.863,2.16l9.505,24.554l9.001-24.41
			c0.721-2.016,1.152-3.888,1.152-5.4c0-1.943-1.297-2.736-4.969-3.096V3.408h14.258v1.368C65.152,5.496,64.359,6.145,62.992,9.889z
			"/>
		<path fill="#7F7F7F" d="M78.402,51.796c-8.281,0-13.465-6.192-13.465-16.129c0-10.513,6.12-17.714,15.049-17.714
			c3.744,0,7.057,1.513,9.217,4.104c1.8,2.305,2.521,4.393,3.096,9.073H70.121c0.145,4.608,0.721,7.128,2.16,9.937
			c2.088,3.889,5.113,5.761,9.073,5.761c4.608,0,7.704-2.089,11.161-7.561l1.151,0.504C90.644,47.548,85.314,51.796,78.402,51.796z
			 M77.898,20.546c-4.393,0-6.841,2.592-7.633,8.28h14.689C84.019,22.562,82.291,20.546,77.898,20.546z"/>
		<path fill="#7F7F7F" d="M109.901,51.796c-5.761,0-11.881-2.376-11.881-4.608V9.816c0-3.024-0.648-3.672-3.528-3.672
			c-0.504,0-0.792,0-1.225,0.071V5.064l2.088-0.576c3.385-0.937,5.329-1.513,8.354-2.593l0.359,0.145v22.034
			c1.44-3.528,5.617-6.121,10.009-6.121c7.201,0,12.674,6.769,12.674,15.626C126.751,43.876,119.406,51.796,109.901,51.796z
			 M111.197,22.489c-3.744,0-7.129,2.593-7.129,5.401v18.146c0,1.8,3.24,3.456,6.985,3.456c5.904,0,9.36-4.608,9.36-12.602
			C120.414,28.106,116.813,22.489,111.197,22.489z"/>
		<path fill="#22B14C" d="M154.282,52.084c-14.329,0-23.905-9.793-23.905-24.41c0-8.208,2.952-15.049,8.424-19.585
			c4.393-3.601,10.081-5.688,15.626-5.688c3.528,0,7.057,0.575,10.585,1.728c1.152,0.433,2.16,0.648,2.88,0.648
			c1.368,0,2.521-0.864,2.952-2.376h1.513l0.647,16.273h-1.656c-1.368-4.681-2.448-6.697-4.752-9.001
			c-2.88-2.881-6.553-4.393-10.729-4.393c-10.441,0-17.138,8.425-17.138,21.458c0,8.353,2.376,14.833,6.624,18.361
			c3.024,2.521,6.913,3.816,11.233,3.816c5.977,0,10.729-2.16,16.058-7.272l1.296,1.296
			C169.548,48.771,162.419,52.084,154.282,52.084z"/>
		<path fill="#22B14C" d="M200.34,51.796c-2.952,0-4.248-1.439-4.607-5.256c-4.393,3.744-7.345,5.256-10.514,5.256
			c-4.464,0-7.561-3.168-7.561-7.704c0-2.376,1.008-4.824,2.593-6.265c3.096-2.736,4.32-3.313,15.409-7.776v-4.393
			c0-3.889-1.944-5.977-5.473-5.977c-2.88,0-5.185,1.584-5.185,3.528c0,0.504,0.072,1.08,0.216,1.728
			c0.072,0.505,0.145,0.864,0.145,1.152c0,1.584-1.513,3.024-3.24,3.024c-1.729,0-3.097-1.44-3.097-3.097
			c0-1.8,1.152-3.888,2.952-5.4c2.017-1.656,5.473-2.664,9.145-2.664c4.393,0,7.489,1.44,9.001,4.177
			c1.009,1.656,1.368,3.672,1.368,7.345v14.041c0,3.168,0.504,4.176,2.16,4.176c1.08,0,1.944-0.359,3.169-1.367v1.872
			C204.301,50.933,202.788,51.796,200.34,51.796z M195.66,31.778c-8.713,3.169-11.665,5.761-11.665,10.009v0.288
			c0,3.097,2.016,5.545,4.536,5.545c1.512,0,3.528-0.576,5.257-1.584c1.512-0.937,1.872-1.585,1.872-3.816V31.778z"/>
		<path fill="#22B14C" d="M228.857,25.01c-0.936,0-1.728-0.432-2.88-1.44c-0.792-0.72-1.44-1.08-1.872-1.08
			c-1.944,0-5.041,3.601-5.041,5.905v16.201c0,4.104,1.225,5.185,6.121,5.4v1.08h-17.281v-1.08c4.608-0.864,5.112-1.368,5.112-4.969
			V27.026c0-3.169-0.648-4.32-2.448-4.32c-0.864,0-1.513,0.071-2.521,0.288v-1.152c4.248-1.368,6.841-2.305,10.657-3.889
			l0.359,0.145v6.624c3.528-5.112,5.617-6.769,8.642-6.769c2.448,0,3.96,1.44,3.96,3.816
			C231.666,23.786,230.586,25.01,228.857,25.01z"/>
		<path fill="#22B14C" d="M245.425,51.796c-8.281,0-13.466-6.192-13.466-16.129c0-10.513,6.121-17.714,15.05-17.714
			c3.744,0,7.057,1.513,9.217,4.104c1.8,2.305,2.521,4.393,3.096,9.073h-22.178c0.145,4.608,0.721,7.128,2.16,9.937
			c2.089,3.889,5.112,5.761,9.073,5.761c4.608,0,7.704-2.089,11.161-7.561l1.151,0.504
			C257.666,47.548,252.337,51.796,245.425,51.796z M244.921,20.546c-4.393,0-6.841,2.592-7.633,8.28h14.689
			C251.041,22.562,249.313,20.546,244.921,20.546z"/>
		<path fill="#2595FF" d="M40.854,105.891c-3.097,1.728-6.984,2.447-12.602,2.447c-1.872,0-3.096-0.071-4.969-0.216v13.105
			c0,5.257,1.08,6.265,6.77,6.48v1.368H9.891v-1.368c5.473-0.504,6.049-1.224,6.049-7.272V89.257c0-5.185-0.721-5.904-6.049-6.48
			v-1.368H28.9c6.768,0,13.033,2.016,15.913,5.185c1.944,2.088,2.952,4.824,2.952,7.849
			C47.766,99.193,45.174,103.586,40.854,105.891z M25.732,84.072c-1.945,0-2.449,0.504-2.449,2.448v18.722
			c1.656,0.144,2.664,0.216,4.104,0.216c8.28,0,12.529-3.601,12.529-10.585C39.917,87.457,35.453,84.072,25.732,84.072z"/>
		<path fill="#2595FF" d="M70.207,103.01c-0.937,0-1.729-0.432-2.881-1.44c-0.792-0.72-1.439-1.08-1.872-1.08
			c-1.944,0-5.04,3.601-5.04,5.905v16.201c0,4.104,1.224,5.185,6.12,5.4v1.08H49.252v-1.08c4.609-0.864,5.113-1.368,5.113-4.969
			v-18.001c0-3.169-0.648-4.32-2.448-4.32c-0.864,0-1.513,0.071-2.521,0.288v-1.152c4.248-1.368,6.841-2.305,10.657-3.889
			l0.36,0.145v6.624c3.527-5.112,5.616-6.769,8.641-6.769c2.447,0,3.96,1.44,3.96,3.816C73.015,101.786,71.935,103.01,70.207,103.01
			z"/>
		<path fill="#2595FF" d="M86.772,129.796c-8.28,0-13.465-6.192-13.465-16.129c0-10.513,6.12-17.714,15.049-17.714
			c3.745,0,7.057,1.513,9.217,4.104c1.801,2.305,2.521,4.393,3.097,9.073H78.492c0.144,4.608,0.72,7.128,2.16,9.937
			c2.088,3.889,5.112,5.761,9.072,5.761c4.608,0,7.705-2.089,11.161-7.561l1.152,0.504
			C99.014,125.548,93.686,129.796,86.772,129.796z M86.269,98.546c-4.393,0-6.841,2.592-7.633,8.28h14.689
			C92.389,100.562,90.661,98.546,86.269,98.546z"/>
		<path fill="#2595FF" d="M116.896,129.796c-1.513,0-3.313-0.288-5.329-0.72c-1.728-0.432-2.52-0.576-3.312-0.576
			c-0.864,0-1.152,0.145-1.656,0.864h-0.937v-11.233h1.152c1.656,7.345,4.177,10.081,9.145,10.081c3.673,0,5.977-2.016,5.977-5.185
			c0-2.231-1.224-3.96-3.744-5.4l-4.177-2.376c-6.12-3.528-8.425-6.337-8.425-10.369c0-5.256,4.033-8.856,9.938-8.856
			c1.728,0,3.384,0.288,4.896,0.864c0.792,0.359,1.512,0.504,1.944,0.504c0.287,0,0.359-0.072,1.008-0.576l0.144-0.144h0.792
			l0.288,9.792h-1.08c-1.656-6.48-3.816-8.856-7.92-8.856c-3.313,0-5.545,1.944-5.545,4.896c0,1.944,1.08,3.744,3.097,4.896
			l7.776,4.608c4.393,2.592,6.049,4.969,6.049,8.568C126.978,125.62,122.369,129.796,116.896,129.796z"/>
		<path fill="#2595FF" d="M143.615,129.796c-8.281,0-13.466-6.192-13.466-16.129c0-10.513,6.121-17.714,15.05-17.714
			c3.744,0,7.057,1.513,9.217,4.104c1.8,2.305,2.521,4.393,3.096,9.073h-22.178c0.145,4.608,0.721,7.128,2.16,9.937
			c2.089,3.889,5.112,5.761,9.073,5.761c4.608,0,7.704-2.089,11.161-7.561l1.151,0.504
			C155.856,125.548,150.527,129.796,143.615,129.796z M143.111,98.546c-4.393,0-6.841,2.592-7.633,8.28h14.689
			C149.231,100.562,147.503,98.546,143.111,98.546z"/>
		<path fill="#2595FF" d="M178.44,129.076v-1.08c3.601-0.288,4.537-1.512,4.537-6.049v-15.049c0-4.753-1.729-6.984-5.257-6.984
			c-2.376,0-3.96,0.863-7.417,4.104v20.234c0,2.592,1.08,3.456,4.753,3.744v1.08h-15.266v-1.08c3.673-0.288,4.465-1.296,4.465-5.4
			v-17.857c0-3.528-0.648-4.608-2.664-4.608c-0.793,0-1.513,0.072-1.944,0.288v-1.225c3.96-1.152,6.408-1.944,9.937-3.24
			l0.504,0.145v5.688c4.896-4.608,7.129-5.833,10.441-5.833c5.328,0,8.496,4.032,8.496,10.801v16.49
			c0,3.527,0.864,4.392,4.393,4.752v1.08H178.44z"/>
		<path fill="#2595FF" d="M216.276,126.771c-2.448,2.017-5.185,3.024-8.28,3.024c-7.993,0-13.682-6.696-13.682-15.985
			c0-5.977,2.16-10.944,6.049-14.185c2.88-2.377,6.337-3.673,9.721-3.673c6.049,0,11.089,3.385,11.089,7.417
			c0,1.656-1.512,3.024-3.384,3.024c-1.584,0-2.881-1.225-3.456-3.313l-0.433-1.584c-0.72-2.664-1.656-3.457-4.248-3.457
			c-5.833,0-9.793,5.041-9.793,12.529c0,8.281,4.536,14.041,11.161,14.041c4.104,0,6.696-1.728,10.152-6.769l1.009,0.648
			C219.877,122.956,218.437,125.044,216.276,126.771z"/>
		<path fill="#2595FF" d="M238.545,129.796c-8.281,0-13.466-6.192-13.466-16.129c0-10.513,6.121-17.714,15.05-17.714
			c3.744,0,7.057,1.513,9.217,4.104c1.8,2.305,2.521,4.393,3.096,9.073h-22.178c0.145,4.608,0.721,7.128,2.16,9.937
			c2.089,3.889,5.112,5.761,9.073,5.761c4.608,0,7.704-2.089,11.161-7.561l1.151,0.504
			C250.786,125.548,245.457,129.796,238.545,129.796z M238.041,98.546c-4.393,0-6.841,2.592-7.633,8.28h14.689
			C244.161,100.562,242.433,98.546,238.041,98.546z"/>
	</g>
</g>
</svg>
